REM DIRINDEX 1\2,1\3,1\4,1\5,1\6
REM DIRNAME "folder01","folder02","folder03","folder04","folder05","folder06"
TITLE ""
FILE "Disc4Track72.mp3" MP3
  TRACK 01 AUDIO
    TITLE "3:cjc161_08396"
    INDEX 01 00:00:00
  TRACK 02 AUDIO
    TITLE "4:cjc161_08397"
    INDEX 01 00:00:71
  TRACK 03 AUDIO
    TITLE "5:cjc161_08398"
    INDEX 01 00:02:44
  TRACK 04 AUDIO
    TITLE "6:cjc161_08399"
    INDEX 01 00:03:52
  TRACK 05 AUDIO
    TITLE "0:"
    INDEX 01 00:08:02
  TRACK 06 AUDIO
    TITLE "3:cjc161_08400"
    INDEX 01 00:08:33
  TRACK 07 AUDIO
    TITLE "4:cjc161_08401"
    INDEX 01 00:09:45
  TRACK 08 AUDIO
    TITLE "5:cjc161_08402"
    INDEX 01 00:10:56
  TRACK 09 AUDIO
    TITLE "0:"
    INDEX 01 00:11:69
  TRACK 10 AUDIO
    TITLE "3:cjc161_08403"
    INDEX 01 00:12:25
  TRACK 11 AUDIO
    TITLE "4:cjc161_08404"
    INDEX 01 00:13:36
  TRACK 12 AUDIO
    TITLE "5:cjc161_08405"
    INDEX 01 00:15:59
  TRACK 13 AUDIO
    TITLE "6:cjc161_08406"
    INDEX 01 00:16:70
  TRACK 14 AUDIO
    TITLE "0:"
    INDEX 01 00:20:56
  TRACK 15 AUDIO
    TITLE "3:cjc161_08407"
    INDEX 01 00:21:12
  TRACK 16 AUDIO
    TITLE "4:cjc161_08408"
    INDEX 01 00:22:22
  TRACK 17 AUDIO
    TITLE "5:cjc161_08409"
    INDEX 01 00:24:38
  TRACK 18 AUDIO
    TITLE "6:cjc161_08410"
    INDEX 01 00:25:46
  TRACK 19 AUDIO
    TITLE "0:"
    INDEX 01 00:27:19
  TRACK 20 AUDIO
    TITLE "3:cjc161_08411"
    INDEX 01 00:27:50
  TRACK 21 AUDIO
    TITLE "4:cjc161_08412"
    INDEX 01 00:28:65
  TRACK 22 AUDIO
    TITLE "5:cjc161_08413"
    INDEX 01 00:33:14
  TRACK 23 AUDIO
    TITLE "6:cjc161_08414"
    INDEX 01 00:34:27
  TRACK 24 AUDIO
    TITLE "0:"
    INDEX 01 00:37:04
  TRACK 25 AUDIO
    TITLE "3:cjc161_08415"
    INDEX 01 00:37:35
  TRACK 26 AUDIO
    TITLE "4:cjc161_08416"
    INDEX 01 00:38:52
  TRACK 27 AUDIO
    TITLE "5:cjc161_08417"
    INDEX 01 00:40:59
  TRACK 28 AUDIO
    TITLE "6:cjc161_08418"
    INDEX 01 00:41:74
  TRACK 29 AUDIO
    TITLE "0:"
    INDEX 01 00:45:44
  TRACK 30 AUDIO
    TITLE "3:cjc161_08419"
    INDEX 01 00:45:74
  TRACK 31 AUDIO
    TITLE "4:cjc161_08420"
    INDEX 01 00:47:10
  TRACK 32 AUDIO
    TITLE "5:cjc161_08421"
    INDEX 01 00:49:34
  TRACK 33 AUDIO
    TITLE "6:cjc161_08422"
    INDEX 01 00:50:43
  TRACK 34 AUDIO
    TITLE "0:"
    INDEX 01 00:52:35
  TRACK 35 AUDIO
    TITLE "3:cjc161_08423"
    INDEX 01 00:52:66
  TRACK 36 AUDIO
    TITLE "4:cjc161_08424"
    INDEX 01 00:53:71
  TRACK 37 AUDIO
    TITLE "5:cjc161_08425"
    INDEX 01 00:56:17
  TRACK 38 AUDIO
    TITLE "6:cjc161_08426"
    INDEX 01 00:57:22
  TRACK 39 AUDIO
    TITLE "0:"
    INDEX 01 01:01:45
  TRACK 40 AUDIO
    TITLE "3:cjc161_08427"
    INDEX 01 01:02:02
  TRACK 41 AUDIO
    TITLE "4:cjc161_08428"
    INDEX 01 01:03:17
  TRACK 42 AUDIO
    TITLE "5:cjc161_08429"
    INDEX 01 01:04:38
  TRACK 43 AUDIO
    TITLE "6:cjc161_08430"
    INDEX 01 01:05:51
  TRACK 44 AUDIO
    TITLE "0:"
    INDEX 01 01:07:38
  TRACK 45 AUDIO
    TITLE "3:cjc161_08431"
    INDEX 01 01:07:69
  TRACK 46 AUDIO
    TITLE "4:cjc161_08432"
    INDEX 01 01:09:02
  TRACK 47 AUDIO
    TITLE "5:cjc161_08433"
    INDEX 01 01:11:20
  TRACK 48 AUDIO
    TITLE "6:cjc161_08434"
    INDEX 01 01:12:25
  TRACK 49 AUDIO
    TITLE "0:"
    INDEX 01 01:15:55
  TRACK 50 AUDIO
    TITLE "3:cjc161_08435"
    INDEX 01 01:15:71
  TRACK 51 AUDIO
    TITLE "4:cjc161_08436"
    INDEX 01 01:17:07
  TRACK 52 AUDIO
    TITLE "5:cjc161_08437"
    INDEX 01 01:18:52
  TRACK 53 AUDIO
    TITLE "0:"
    INDEX 01 01:19:67
  TRACK 54 AUDIO
    TITLE "3:cjc161_08438"
    INDEX 01 01:20:23
  TRACK 55 AUDIO
    TITLE "4:cjc161_08439"
    INDEX 01 01:21:38
  TRACK 56 AUDIO
    TITLE "5:cjc161_08440"
    INDEX 01 01:23:55
  TRACK 57 AUDIO
    TITLE "6:cjc161_08441"
    INDEX 01 01:24:68
  TRACK 58 AUDIO
    TITLE "0:"
    INDEX 01 01:28:01
  TRACK 59 AUDIO
    TITLE "3:cjc161_08442"
    INDEX 01 01:28:30
  TRACK 60 AUDIO
    TITLE "4:cjc161_08443"
    INDEX 01 01:29:47
  TRACK 61 AUDIO
    TITLE "5:cjc161_08444"
    INDEX 01 01:31:27
  TRACK 62 AUDIO
    TITLE "6:cjc161_08445"
    INDEX 01 01:32:38
  TRACK 63 AUDIO
    TITLE "0:"
    INDEX 01 01:36:02
